<svg viewBox="0 0 277.37 124.47" xmlns="http://www.w3.org/2000/svg"><path d="m98.56 33.59c0-5.56 4.93-10.23 10.77-10.23 3.17 0 6.05 1.35 8.04 3.49l-4.12 3.6c-.92-1.21-2.36-2.02-3.92-2.02-2.71 0-5.01 2.36-5.01 5.16s2.3 5.19 5.01 5.19c1.58 0 3-.81 3.95-2.02l4.09 3.57c-1.99 2.16-4.87 3.51-8.04 3.51-5.85 0-10.77-4.7-10.77-10.25z" fill="#6b2989"/><path d="m118.7 36.04c0-4.23 3.83-7.78 8.41-7.78s8.38 3.54 8.38 7.78-3.83 7.81-8.38 7.81-8.41-3.57-8.41-7.81zm11.61 0c0-1.73-1.47-3.17-3.2-3.17s-3.23 1.44-3.23 3.17 1.47 3.2 3.23 3.2 3.2-1.47 3.2-3.2z" fill="#6b2989"/><path d="m137.83 23.36h5.56v20.14h-5.56z" fill="#6b2989"/><path d="m156.92 38.46 3.05 3.08c-1.33 1.35-3.86 2.3-6.14 2.3-4.75 0-8.09-3.26-8.09-7.84s3.25-7.75 7.86-7.75 7.6 3.37 7.6 9.1h-10.54c.43 1.41 1.53 2.33 2.94 2.33 1.12 0 2.33-.46 3.31-1.24zm-6.16-4.01h5.42c-.4-1.24-1.35-2.05-2.56-2.05-1.33 0-2.36.81-2.85 2.05z" fill="#6b2989"/><path d="m179.42 28.61v13.31c0 3.83-3.51 6.54-8.47 6.54-2.77 0-5.36-.84-6.94-1.99l1.82-3.83c.86.72 2.59 1.21 4.23 1.21 2.22 0 3.77-.95 3.77-2.22v-1.18c-1.18 1.24-2.88 1.96-4.61 1.96-3.6 0-6.45-2.94-6.45-7.09s2.85-7.06 6.45-7.06c1.79 0 3.69.84 4.61 1.99v-1.64zm-5.59 6.71c0-1.44-1.12-2.45-2.68-2.45s-2.68 1.01-2.68 2.45 1.12 2.48 2.68 2.48 2.68-1.04 2.68-2.48z" fill="#6b2989"/><path d="m182.42 24.14c0-1.5 1.27-2.82 2.88-2.82s2.82 1.33 2.82 2.82-1.27 2.88-2.82 2.88-2.88-1.33-2.88-2.88zm.06 4.47h5.56v14.89h-5.56z" fill="#6b2989"/><path d="m190.43 36.04c0-4.23 3.83-7.78 8.41-7.78s8.38 3.54 8.38 7.78-3.83 7.81-8.38 7.81-8.41-3.57-8.41-7.81zm11.61 0c0-1.73-1.47-3.17-3.2-3.17s-3.23 1.44-3.23 3.17 1.47 3.2 3.23 3.2 3.2-1.47 3.2-3.2z" fill="#6b2989"/><path d="m45.33 53.23 35.74-32.97v-12.41h.03v-7.85l-81.1 20.78v64.91c0 2.67.23 5.29.69 7.83l26.91-25.92.57-22.08 19.58-18.81c-.16-.5-.24-1.02-.23-1.56.03-1.27.54-2.46 1.46-3.34s2.13-1.36 3.4-1.33 2.46.55 3.34 1.46c.88.92 1.35 2.12 1.33 3.4-.03 1.27-.54 2.46-1.46 3.34-.89.86-2.06 1.33-3.3 1.33-.03 0-.07 0-.1 0-1.11-.02-2.15-.42-2.98-1.13l-18.49 17.76-.57 22.08-28.82 27.75c.77 3.05 1.88 5.95 3.31 8.67l32.21-31.01-.19-23.57 28.08-26.98c-.28-.63-.43-1.33-.42-2.04.03-1.27.54-2.46 1.46-3.34s2.12-1.36 3.4-1.33c1.27.03 2.46.55 3.34 1.46 1.82 1.9 1.76 4.92-.13 6.74-.92.89-2.11 1.33-3.3 1.33-.95 0-1.89-.28-2.7-.83l-27.15 26.08.19 23.57-33.47 32.23c1.18 1.91 2.53 3.7 4.04 5.37l35.53-35.99-.19-23.6z" fill="#6b2989"/><path d="m50.71 26.76c.41.42.95.66 1.54.67.58.02 1.14-.2 1.56-.61s.66-.95.67-1.54-.21-1.14-.61-1.56c-.41-.42-.95-.66-1.54-.67-.01 0-.03 0-.04 0-.57 0-1.11.22-1.52.61-.42.41-.66.95-.67 1.54s.21 1.14.61 1.56z" fill="#6b2989"/><path d="m70.61 23.21c.87-.84.9-2.23.06-3.1-.41-.42-.95-.66-1.54-.67-.01 0-.03 0-.04 0-.57 0-1.11.22-1.52.61-.42.41-.66.95-.67 1.54s.21 1.14.61 1.56c.84.87 2.23.9 3.1.06z" fill="#6b2989"/><g fill="#0f1b3a"><path d="m67.33 64.42-.58 22.08-10.9 10.47c.16.5.24 1.02.23 1.56-.03 1.27-.54 2.46-1.46 3.34-.89.86-2.06 1.33-3.3 1.33-.03 0-.07 0-.1 0-1.27-.03-2.46-.55-3.34-1.46-.88-.92-1.35-2.12-1.33-3.4.03-1.27.54-2.46 1.46-3.34s2.12-1.35 3.4-1.33c1.11.02 2.15.42 2.98 1.13l9.8-9.42.58-22.08 16.32-15.68v-10.1l-22.54 21.65-.57 22.08-19.58 18.81c.16.5.24 1.02.23 1.56-.03 1.27-.54 2.46-1.46 3.34-.89.86-2.06 1.33-3.3 1.33-.03 0-.07 0-.1 0-1.27-.03-2.46-.55-3.34-1.46s-1.35-2.12-1.33-3.4.54-2.46 1.46-3.34c1.78-1.71 4.54-1.76 6.38-.2l18.49-17.76.57-22.08 25.09-24.1v-7.82h-.03s0-2.36 0-2.36l-33.15 30.58.19 23.53-36.3 36.78c6.71 6.45 15.55 9.97 25.31 9.8 16.84-.29 28.09-11.61 30.28-13.86.98-1 1.87-2 2.69-3 3.34-4.07 5.43-8 6.71-10.87.01-.03.03-.06.04-.08 0 0 0-.02.01-.02 2.77-6.15 4.25-12.84 4.25-19.66v-25.77l-13.77 13.23z"/><path d="m52.9 96.92c-.41-.42-.95-.66-1.54-.67-.02 0-.03 0-.04 0-.57 0-1.11.22-1.52.61-.42.41-.66.95-.67 1.54s.21 1.14.61 1.56c.41.42.95.66 1.54.67.57.01 1.14-.2 1.56-.61s.66-.95.67-1.54-.21-1.14-.61-1.56z"/><path d="m33.87 99.34c-.55 0-1.09.2-1.52.61-.42.41-.66.95-.67 1.54s.21 1.14.61 1.56c.41.42.95.66 1.54.67.57.02 1.14-.2 1.56-.61s.66-.95.67-1.54-.21-1.14-.61-1.56c-.43-.45-1-.67-1.58-.67z"/><path d="m99.63 53.23h34.09v8.66h-12.22l.33 27.04h-9.85l-.11-27.04h-12.25v-8.66z"/><path d="m136.21 53.14h28.99v8.7h-19.85v4.87h19.38v8.7h-19.38v4.87h19.85v8.68h-28.99v-35.83z"/><path d="m187.83 53.06c5.51.25 9.91 2.57 12.93 5.49l.57.55-6.27 6.22-.59-.54c-2.17-2-4.68-2.97-7.64-2.97s-5.51.9-7.61 2.73c-2.14 1.87-3.17 4.03-3.17 6.59s1.04 4.75 3.17 6.59c2.11 1.82 4.61 2.71 7.62 2.71s5.53-.97 7.66-2.96l.59-.55 6.27 6.21-.55.55c-1.71 1.69-3.73 3.04-6.12 4.04-2.43.97-5.06 1.46-7.87 1.46-5.55-.02-10.34-1.78-14.26-5.27-3.69-3.53-5.55-7.83-5.55-12.8s1.86-9.26 5.55-12.82c3.95-3.54 8.75-5.34 14.27-5.34h1.06l-.03.11z"/><path d="m206.33 53.14 20.9 18.78v-18.78h9.01v35.78h-1.96l-20.85-18.74v18.74h-8.99v-35.78z"/><path d="m258.35 52.95c5.47 0 9.55 1.79 13.45 5.34 3.7 3.54 5.57 7.85 5.57 12.82s-1.87 9.29-5.57 12.8c-3.89 3.5-7.97 5.27-13.45 5.27-5.5-.02-9.57-1.78-13.45-5.27-3.69-3.53-5.55-7.83-5.55-12.8s1.86-9.26 5.55-12.82c3.91-3.54 7.98-5.34 13.45-5.34zm0 8.79c-3 0-4.81.9-6.88 2.73-2.11 1.87-3.14 4.03-3.14 6.59s1.03 4.75 3.13 6.59c2.09 1.82 3.9 2.71 6.88 2.71s4.74-.89 6.86-2.72c2.12-1.82 3.15-3.98 3.15-6.58s-1.03-4.73-3.16-6.59c-2.11-1.84-3.91-2.73-6.86-2.73z"/><path d="m106.01 96.7-1.61 3.77h-2.22l2.2-3.77zm3.13 0-1.61 3.77h-2.22l2.2-3.77z"/><path d="m108.28 107.91 1.87-11.18h2.19l-1.87 11.18z"/><path d="m112.19 107.91 1.34-7.98h1.98l-.1.97c.31-.38.66-.67 1.05-.87s.81-.3 1.26-.3c.64 0 1.17.14 1.58.42.42.28.69.71.81 1.27.32-.55.71-.97 1.17-1.26s.96-.43 1.5-.43c.97 0 1.66.31 2.08.93s.52 1.54.31 2.78l-.75 4.47h-2.11l.69-4.12c.1-.54.11-.97.06-1.27-.06-.3-.18-.51-.37-.63s-.42-.18-.69-.18c-.53 0-.96.18-1.29.53-.33.36-.55.87-.66 1.52l-.7 4.14h-2.11l.7-4.12c.1-.54.11-.96.05-1.26s-.19-.51-.37-.63-.42-.18-.7-.18c-.52 0-.95.18-1.28.53-.33.36-.55.87-.65 1.52l-.7 4.14h-2.11z"/><path d="m125.27 111.1 1.87-11.18h1.98l-.13 1.47-1.61 9.71zm6.21-11.37c.72 0 1.34.17 1.84.5.5.34.86.8 1.09 1.4s.3 1.3.2 2.11c-.06.62-.2 1.19-.42 1.72s-.5 1-.85 1.39-.76.7-1.24.92c-.47.22-.99.33-1.56.33-.71 0-1.28-.17-1.71-.51s-.72-.81-.88-1.41-.2-1.28-.11-2.06c.06-.71.2-1.34.41-1.88s.47-1 .8-1.37c.32-.37.69-.65 1.11-.85.42-.19.86-.29 1.33-.29zm-.69 1.93c-.33 0-.63.07-.89.21s-.49.33-.69.57-.35.51-.46.81-.18.61-.2.93c-.04.59.08 1.06.38 1.42.29.36.69.54 1.21.54.32 0 .61-.07.89-.21.27-.14.51-.32.72-.55s.37-.49.49-.79.19-.61.21-.94c.04-.57-.09-1.05-.4-1.43s-.72-.57-1.25-.57z"/><path d="m137.79 108.1c-.97 0-1.66-.3-2.08-.89-.42-.6-.53-1.51-.33-2.73l.77-4.55h2.11l-.69 4.1c-.1.53-.11.95-.03 1.25.07.3.21.52.42.65.2.13.45.19.73.19.53.01.97-.15 1.32-.47s.58-.8.71-1.43l.72-4.3h2.11l-1.34 7.98h-1.98l.1-1.05c-.67.83-1.51 1.25-2.52 1.25z"/><path d="m143.62 107.91 1.88-11.18h2.11l-1.88 11.18z"/><path d="m150.05 108.1c-.56 0-1.06-.08-1.49-.25-.43-.16-.77-.39-1.03-.66-.26-.28-.42-.6-.48-.96l1.84-.64c.1.33.27.57.53.71s.52.22.78.22c.22 0 .44-.04.64-.11s.37-.18.5-.32.19-.31.19-.53c0-.2-.09-.37-.26-.49-.17-.13-.44-.25-.8-.35l-.67-.18c-.61-.16-1.07-.41-1.38-.76s-.47-.75-.47-1.22c0-.57.15-1.07.46-1.5s.73-.75 1.27-.98 1.16-.34 1.88-.34c.85 0 1.5.16 1.94.49s.73.75.87 1.29l-1.79.62c-.06-.29-.2-.49-.42-.62-.21-.12-.5-.18-.86-.18-.33 0-.62.09-.86.26-.25.18-.37.39-.37.65 0 .15.08.29.26.41.17.13.43.24.78.34l.64.16c.68.17 1.19.45 1.54.83s.52.84.52 1.36c0 .6-.18 1.1-.53 1.51s-.81.72-1.38.93-1.18.32-1.84.32z"/><path d="m157.83 108.1c-.72 0-1.34-.17-1.84-.5-.5-.34-.86-.8-1.09-1.4s-.3-1.3-.22-2.1c.06-.62.2-1.19.42-1.72s.51-1 .86-1.39c.36-.39.77-.7 1.24-.92s.99-.33 1.56-.33c.71 0 1.28.17 1.7.51s.71.81.88 1.4c.16.59.2 1.28.1 2.07-.06.71-.2 1.34-.41 1.88s-.47 1-.8 1.37-.69.65-1.1.85c-.41.19-.85.29-1.32.29zm.68-1.93c.32 0 .61-.07.87-.21s.49-.33.69-.57.35-.51.46-.81.18-.61.2-.93c.05-.59-.07-1.06-.37-1.42s-.7-.54-1.2-.54c-.33 0-.63.07-.9.21s-.51.32-.71.55-.36.49-.49.79c-.12.3-.19.61-.22.94-.03.57.1 1.05.41 1.43.3.38.72.57 1.25.57zm1.63 1.74.16-1.49 1.09-6.5h2.11l-1.34 7.98h-2.01z"/><path d="m163.57 107.91 1.34-7.98h1.98l-.1 1.04c.67-.82 1.51-1.23 2.52-1.23s1.68.3 2.1.89c.42.6.52 1.51.31 2.73l-.77 4.55h-2.11l.69-4.1c.09-.53.09-.95.02-1.25s-.2-.52-.4-.65-.44-.19-.74-.19c-.52-.01-.96.14-1.3.45s-.58.76-.71 1.36l-.73 4.39h-2.11z"/><path d="m175.63 108.1c-.72 0-1.34-.17-1.84-.5-.5-.34-.86-.8-1.09-1.4s-.3-1.3-.22-2.1c.06-.62.2-1.19.42-1.72s.51-1 .86-1.39c.36-.39.77-.7 1.24-.92s.99-.33 1.56-.33c.71 0 1.28.17 1.7.51s.71.81.88 1.4.2 1.28.1 2.07c-.06.71-.2 1.34-.41 1.88s-.47 1-.8 1.37-.69.65-1.1.85-.85.29-1.32.29zm.69-1.93c.32 0 .61-.07.87-.21s.49-.33.69-.57.35-.51.46-.81.18-.61.2-.93c.05-.59-.07-1.06-.37-1.42s-.7-.54-1.2-.54c-.33 0-.63.07-.9.21s-.51.32-.71.55-.36.49-.49.79c-.12.3-.19.61-.22.94-.03.57.1 1.05.41 1.43s.72.57 1.25.57zm1.63 1.74.16-1.49 1.61-9.69h2.11l-1.87 11.18z"/><path d="m185.45 108.1c-.84 0-1.58-.19-2.2-.56-.63-.37-1.09-.89-1.37-1.56-.29-.67-.36-1.43-.21-2.31.13-.78.4-1.46.83-2.06s.96-1.06 1.6-1.39 1.34-.49 2.09-.49c.85 0 1.59.19 2.21.56s1.07.89 1.36 1.56.35 1.43.2 2.31c-.13.78-.4 1.46-.83 2.06s-.96 1.06-1.59 1.39-1.33.49-2.08.49zm.06-1.95c.37 0 .72-.09 1.05-.27.32-.18.6-.44.82-.77s.37-.71.45-1.15c.07-.47.05-.87-.08-1.21s-.33-.6-.61-.79-.62-.28-1.02-.28c-.37 0-.72.09-1.05.27-.32.18-.6.44-.82.77s-.38.71-.46 1.15c-.07.47-.05.87.08 1.21s.34.6.62.79c.29.19.63.28 1.02.28z"/><path d="m197.54 108.1c-.83-.04-1.53-.26-2.11-.65-.57-.39-.99-.91-1.25-1.56s-.31-1.39-.18-2.22c.14-.82.43-1.53.89-2.14s1.02-1.07 1.69-1.39c.68-.32 1.42-.45 2.23-.4.8.03 1.46.24 2 .61s.9.91 1.12 1.59c.21.68.23 1.5.06 2.44h-5.92c-.03.43.02.79.15 1.09s.33.53.58.69c.26.16.56.25.91.26.46.02.87-.07 1.24-.29.37-.21.65-.49.84-.83l1.72.81c-.27.49-.62.88-1.05 1.18-.44.3-.91.51-1.41.63-.51.12-1.01.17-1.51.15zm-1.2-5.11h3.69c-.02-.51-.15-.92-.38-1.22s-.6-.47-1.11-.49-.96.12-1.33.43c-.38.31-.67.73-.87 1.28z"/><path d="m202.23 107.91 1.88-11.18h2.11l-1.88 11.18z"/><path d="m209.7 101.61.29-1.69h5.4l-.29 1.69zm.27 6.3 1.47-8.8c.15-.85.48-1.51.98-1.98s1.21-.7 2.1-.7c.31 0 .63.05.97.16s.63.23.89.38l-1.01 1.52c-.16-.1-.31-.16-.44-.2s-.25-.06-.36-.06c-.3 0-.53.1-.71.3s-.3.52-.36.97l-1.42 8.41z"/><path d="m217.91 108.1c-.97 0-1.66-.3-2.08-.89-.42-.6-.53-1.51-.33-2.73l.77-4.55h2.11l-.69 4.1c-.1.53-.11.95-.03 1.25.07.3.21.52.42.65.2.13.45.19.73.19.53.01.97-.15 1.32-.47s.58-.8.71-1.43l.72-4.3h2.11l-1.34 7.98h-1.98l.1-1.05c-.67.83-1.51 1.25-2.52 1.25z"/><path d="m227.14 108.1c-.88 0-1.51-.22-1.88-.66s-.49-1.07-.35-1.88l.64-3.85h-1.29l.3-1.79h1.29l.41-2.49h2.11l-.41 2.49h2l-.3 1.79h-2l-.57 3.4c-.05.35-.03.61.08.78s.3.26.59.26c.11 0 .23-.03.38-.08.14-.05.3-.12.46-.21l.49 1.58c-.31.2-.63.36-.97.48s-.66.18-.96.18z"/><path d="m232.7 108.1c-.97 0-1.66-.3-2.08-.89-.42-.6-.53-1.51-.33-2.73l.77-4.55h2.11l-.69 4.1c-.1.53-.11.95-.03 1.25.07.3.21.52.42.65.2.13.45.19.73.19.53.01.97-.15 1.32-.47s.58-.8.71-1.43l.72-4.3h2.11l-1.34 7.98h-1.98l.1-1.05c-.67.83-1.51 1.25-2.52 1.25z"/><path d="m238.52 107.91 1.34-7.98h2.11l-.24 1.47c.4-.5.88-.88 1.42-1.13s1.09-.38 1.63-.38l-.3 2.04c-.48 0-.94.06-1.39.18s-.83.31-1.14.57-.51.6-.6 1.01l-.72 4.22z"/><path d="m248.26 108.1c-.84 0-1.58-.19-2.2-.56-.63-.37-1.09-.89-1.37-1.56-.29-.67-.36-1.43-.21-2.31.13-.78.4-1.46.83-2.06s.96-1.06 1.6-1.39 1.34-.49 2.09-.49c.85 0 1.59.19 2.21.56s1.07.89 1.36 1.56.35 1.43.2 2.31c-.13.78-.4 1.46-.83 2.06s-.96 1.06-1.59 1.39-1.33.49-2.08.49zm.07-1.95c.37 0 .72-.09 1.05-.27.32-.18.6-.44.82-.77s.37-.71.45-1.15c.07-.47.05-.87-.08-1.21s-.33-.6-.61-.79-.62-.28-1.02-.28c-.37 0-.72.09-1.05.27-.32.18-.6.44-.82.77s-.38.71-.46 1.15c-.07.47-.05.87.08 1.21s.34.6.62.79c.29.19.63.28 1.02.28z"/><path d="m253.68 100.5 1.61-3.77h2.22l-2.2 3.77zm3.13 0 1.61-3.77h2.22l-2.2 3.77z"/><path d="m260.59 108.15c-.26 0-.48-.07-.67-.2s-.34-.31-.43-.52c-.1-.21-.12-.45-.08-.7.04-.31.2-.58.46-.81.27-.23.55-.34.86-.34.26 0 .48.06.67.19s.34.3.43.51c.1.21.12.45.08.72-.05.31-.21.58-.46.81-.26.23-.54.34-.86.34z"/></g></svg>