<svg viewBox="0 0 382.03 122.9" xmlns="http://www.w3.org/2000/svg"><path d="m79.06 87.18c-4.18-2.49-8.69-5.44-13.36-8.94-4.6-3.44-8.64-6.88-12.16-10.13-4.44 3.1-9.85 6.25-16.04 8.52-3.11 1.14-5.99 1.9-8.57 2.4-.58.05-1.71.27-2.91 1.28-1.01.85-1.64 1.9-1.97 2.54-.3-.09-5.06-1.55-6.13-7.2-.32-1.7-.23-3.28-.05-4.46 1.13-.19 2.26-.39 3.41-.58 1.29-.25 2.86-.71 4.61-1.56 2.2-1.06 4.03-2.41 5.42-3.62.59-1.55 1.49-3.5 2.89-5.56 1.53-2.25 3.16-3.91 4.47-5.07-2.51-2.66-5.1-5.56-7.71-8.74-2.9-3.52-5.48-6.95-7.78-10.23-1.94-.37-4.08-.84-6.28-1.34v50.12c0 10.4 3.54 19.96 10.12 27.08 6.78 7.34 16.13 11.39 26.52 11.21 10.86-.19 21.55-4.97 29.9-13.68 1.26-1.31 2.43-2.69 3.53-4.11-.39-.83-.82-1.74-1.34-2.81-2.2-5.38-4.39-9.83-6.55-15.11z" fill="#0f1b3a"/><path d="m96.96 7.74v-7.74l-80.07 20.52v6.22l20.17-4.69c5.42 8.71 6.12 9.72 6.12 9.72 1.79 2.56 4.42 5.74 8.32 9.04 1.77 1.5 4.38 1.46 6.11-.09 1.33-1.19 2.79-2.4 4.39-3.6 2.04-1.53 4.01-2.83 5.86-3.93 0 0 4.16-3.63 8.28-.45.64.57 1.7 1.34 3.17 1.78 1.49.44 2.81.37 3.69.24 1.82-1.24 5.51-1.41 6.72.02 1.3 1.54 1.04 3.87.99 4.22-2.52.09-6.42-.05-6.42-.05-1.24.32-3.09 1.01-4.99 2.6-1.65 1.39-2.58 2.83-4.3 5.47-1.1 1.7-2.84 4.35-5.48 8.39 3.13 2.4 6.73 4.87 10.81 7.28 3.8 2.24 7.51 4.12 11.04 5.7.48 14.93.58 19.99.81 28.31 3.12-6.42 4.79-13.48 4.79-20.69v-50.21h-.03s0-18.05 0-18.05h.03z" fill="#536fb0"/><path d="m92.17 96.68c-.23-8.32-.33-13.37-.81-28.31-3.53-1.58-7.24-3.46-11.04-5.7-4.09-2.41-7.68-4.89-10.81-7.28 2.64-4.03 4.38-6.69 5.48-8.39 1.72-2.64 2.65-4.08 4.3-5.47 1.9-1.6 3.75-2.28 4.99-2.6 0 0 3.9.14 6.42.05.04-.35.31-2.68-.99-4.22-1.21-1.43-4.9-1.26-6.72-.02-.87.13-2.2.2-3.69-.24-1.48-.44-2.53-1.21-3.17-1.78-4.12-3.18-8.28.45-8.28.45-1.85 1.1-3.82 2.4-5.86 3.93-1.6 1.2-3.06 2.42-4.39 3.6-1.73 1.55-4.34 1.58-6.11.09-3.9-3.29-6.53-6.47-8.32-9.04 0 0-.71-1.01-6.12-9.72l-20.17 4.69-16.88 3.95c4.74.91 11.07 2.5 16.89 3.82 2.21.5 4.34.97 6.28 1.34 2.3 3.28 4.88 6.71 7.78 10.23 2.61 3.17 5.2 6.08 7.71 8.74-1.32 1.16-2.95 2.82-4.47 5.07-1.4 2.06-2.3 4.01-2.89 5.56-1.39 1.21-3.21 2.55-5.42 3.62-1.75.84-3.32 1.3-4.61 1.56-1.14.19-2.28.39-3.41.58-.17 1.18-.27 2.77.05 4.46 1.08 5.65 5.83 7.11 6.13 7.2.33-.64.96-1.69 1.97-2.54 1.2-1.01 2.33-1.23 2.91-1.28 2.58-.5 5.45-1.26 8.57-2.4 6.19-2.27 11.6-5.42 16.04-8.52 3.52 3.26 7.56 6.69 12.16 10.13 4.68 3.5 9.18 6.46 13.36 8.94 2.16 5.28 4.35 9.74 6.55 15.11.53 1.07.96 1.98 1.34 2.81 1.63 3.5 2.43 5.48 5.8 11.24-.29-9.2-.46-14.96-.59-19.67z" fill="#fff"/><path d="m142.31 83.23h-12.14l-1.78 4.67h-11.12l13.41-34.89h11.12l13.41 34.89h-11.12zm-2.79-7.26-3.25-8.48-3.3 8.48z" fill="#0f1b3a"/><path d="m183.14 79.12v8.79h-26.11v-34.89h9.85v26.11h16.25z" fill="#0f1b3a"/><path d="m186.09 53.01h18.79c6.65 0 11.28 3.71 11.28 8.79 0 3.4-1.78 6.35-4.83 7.82 4.06 1.73 6.45 5.03 6.45 8.89 0 5.59-5.08 9.4-12.19 9.4h-19.5v-34.89zm16.4 13.56c2.03 0 3.5-1.12 3.5-2.64s-1.47-2.64-3.5-2.64h-6.6v5.28zm1.48 13.06c2.13 0 3.66-1.17 3.66-2.79s-1.52-2.79-3.66-2.79h-8.08v5.59h8.08z" fill="#0f1b3a"/><path d="m241.7 83.23h-12.14l-1.78 4.67h-11.12l13.41-34.89h11.12l13.41 34.89h-11.12zm-2.79-7.26-3.25-8.48-3.3 8.48z" fill="#0f1b3a"/><path d="m260.14 61.8h-10.31v-8.79h30.47v8.79h-10.31v26.11h-9.85z" fill="#0f1b3a"/><path d="m302.19 87.91-7.36-10.51h-3.05v10.51h-9.85v-34.89h16.71c7.82 0 13.36 5.03 13.36 12.19 0 4.98-2.64 8.89-6.91 10.87l8.33 11.83h-11.22zm-10.41-19.46h6.04c2.34 0 4.01-1.37 4.01-3.25s-1.68-3.25-4.01-3.25h-6.04z" fill="#0f1b3a"/><path d="m313.46 70.43c0-9.8 8.69-18.03 19-18.03s19 8.23 19 18.03-8.69 18.08-19 18.08-19-8.28-19-18.08zm27.84 0c0-4.93-4.06-9.09-8.84-9.09s-8.84 4.16-8.84 9.09 4.06 9.14 8.84 9.14 8.84-4.16 8.84-9.14z" fill="#0f1b3a"/><path d="m350.99 82.62 5.49-6.55c3.56 2.79 7.42 4.27 11.53 4.27 2.69 0 4.11-.91 4.11-2.44 0-1.68-1.22-1.93-6.04-3.05-7.57-1.73-13.41-3.71-13.41-10.97s5.49-11.48 13.76-11.48c6.04 0 10.77 1.63 14.63 4.72l-4.93 6.96c-3.25-2.34-6.81-3.5-9.96-3.5-2.39 0-3.56.97-3.56 2.29 0 1.78 1.22 2.34 6.2 3.4 8.13 1.73 13.21 3.91 13.21 10.56 0 7.36-5.64 11.68-14.37 11.68-6.3 0-12.24-1.98-16.66-5.89z" fill="#0f1b3a"/><path d="m124.39 33.11c0-5.52 4.89-10.15 10.69-10.15 3.14 0 6 1.34 7.98 3.46l-4.09 3.57c-.91-1.2-2.34-2-3.89-2-2.69 0-4.97 2.34-4.97 5.12s2.29 5.15 4.97 5.15c1.57 0 2.97-.8 3.92-2l4.06 3.55c-1.97 2.14-4.83 3.49-7.98 3.49-5.8 0-10.69-4.66-10.69-10.18z" fill="#536fb0"/><path d="m144.38 35.54c0-4.2 3.8-7.72 8.35-7.72s8.32 3.52 8.32 7.72-3.8 7.75-8.32 7.75-8.35-3.55-8.35-7.75zm11.52 0c0-1.72-1.46-3.14-3.17-3.14s-3.2 1.43-3.2 3.14 1.46 3.17 3.2 3.17 3.17-1.46 3.17-3.17z" fill="#536fb0"/><path d="m163.36 22.96h5.52v19.98h-5.52z" fill="#536fb0"/><path d="m182.32 37.94 3.03 3.06c-1.32 1.34-3.83 2.29-6.09 2.29-4.72 0-8.03-3.23-8.03-7.78s3.23-7.69 7.81-7.69 7.55 3.35 7.55 9.03h-10.46c.43 1.4 1.52 2.32 2.92 2.32 1.12 0 2.32-.46 3.29-1.23zm-6.12-3.98h5.38c-.4-1.23-1.34-2.03-2.54-2.03-1.32 0-2.34.8-2.83 2.03z" fill="#536fb0"/><path d="m204.65 28.16v13.21c0 3.8-3.49 6.49-8.41 6.49-2.74 0-5.32-.83-6.89-1.97l1.8-3.8c.86.71 2.57 1.2 4.2 1.2 2.2 0 3.74-.94 3.74-2.2v-1.17c-1.17 1.23-2.86 1.94-4.57 1.94-3.57 0-6.4-2.92-6.4-7.03s2.83-7 6.4-7c1.77 0 3.66.83 4.57 1.97v-1.63h5.55zm-5.55 6.66c0-1.43-1.12-2.43-2.66-2.43s-2.66 1-2.66 2.43 1.12 2.46 2.66 2.46 2.66-1.03 2.66-2.46z" fill="#536fb0"/><path d="m207.62 23.73c0-1.49 1.26-2.8 2.86-2.8s2.8 1.32 2.8 2.8-1.26 2.86-2.8 2.86-2.86-1.32-2.86-2.86zm.06 4.43h5.52v14.78h-5.52z" fill="#536fb0"/><path d="m215.57 35.54c0-4.2 3.8-7.72 8.35-7.72s8.32 3.52 8.32 7.72-3.8 7.75-8.32 7.75-8.35-3.55-8.35-7.75zm11.52 0c0-1.72-1.46-3.14-3.17-3.14s-3.2 1.43-3.2 3.14 1.46 3.17 3.2 3.17 3.17-1.46 3.17-3.17z" fill="#536fb0"/><g fill="#0f1b3a"><path d="m119.3 96.03-1.6 3.73h-2.2l2.18-3.73h1.61zm3.1 0-1.6 3.73h-2.2l2.18-3.73h1.61z"/><path d="m121.55 107.13 1.85-11.07h7.01l-.33 1.98h-4.84l-.43 2.52h4.18l-.32 1.93h-4.18l-.46 2.67h4.92l-.33 1.98h-7.07z"/><path d="m133.52 107.32c-.72 0-1.32-.17-1.82-.5s-.86-.8-1.08-1.39c-.23-.6-.3-1.29-.21-2.08.06-.61.2-1.18.42-1.71s.5-.99.85-1.38.76-.69 1.23-.91c.46-.22.98-.32 1.55-.32.71 0 1.27.17 1.68.51.42.34.71.8.87 1.38.16.59.2 1.27.1 2.05-.06.71-.2 1.33-.4 1.87-.21.54-.47.99-.79 1.36s-.69.65-1.09.84c-.41.19-.84.28-1.31.28zm.68-1.91c.32 0 .6-.07.86-.21s.49-.32.68-.56.35-.51.46-.81.18-.61.2-.93c.05-.58-.07-1.05-.36-1.41-.3-.36-.69-.54-1.19-.54-.33 0-.62.07-.89.21s-.5.32-.7.55-.36.49-.48.78c-.12.3-.19.61-.21.93-.03.57.1 1.04.4 1.42.3.37.71.56 1.24.56zm1.62 1.72.16-1.47 1.6-9.6h2.09l-1.85 11.07h-1.99z"/><path d="m142.05 107.32c-.96 0-1.65-.3-2.06-.89-.42-.59-.52-1.49-.32-2.7l.76-4.51h2.09l-.68 4.07c-.09.53-.11.94-.03 1.24.07.3.21.51.41.64s.44.19.73.19c.53.01.96-.14 1.31-.47.34-.32.58-.79.7-1.42l.71-4.25h2.09l-1.33 7.91h-1.96l.09-1.04c-.66.82-1.5 1.23-2.5 1.23z"/><path d="m151.73 107.32c-.8 0-1.48-.18-2.05-.53-.56-.35-.99-.82-1.27-1.41s-.4-1.24-.35-1.95c.06-.88.3-1.64.7-2.3.41-.66.94-1.17 1.6-1.54s1.38-.55 2.18-.55c.61 0 1.17.1 1.66.3.5.2.91.47 1.26.82s.57.75.69 1.2l-2.02.62c-.13-.33-.32-.57-.59-.74s-.6-.25-.99-.25c-.41 0-.78.1-1.12.29-.33.19-.61.47-.82.81-.22.35-.35.76-.39 1.23-.04.38 0 .73.12 1.04s.32.56.59.74.6.28 1 .28.79-.1 1.13-.31.61-.47.8-.8l1.82.79c-.42.75-.97 1.31-1.65 1.69s-1.44.57-2.29.57z"/><path d="m159.5 107.32c-.72 0-1.32-.17-1.82-.5s-.86-.8-1.08-1.39c-.23-.6-.3-1.29-.21-2.08.06-.61.2-1.18.42-1.71s.5-.99.85-1.38.76-.69 1.23-.91c.46-.22.98-.32 1.55-.32.71 0 1.27.17 1.68.51.42.34.71.8.87 1.38s.2 1.27.1 2.05c-.06.71-.2 1.33-.4 1.87-.21.54-.47.99-.79 1.36s-.69.65-1.09.84c-.41.19-.84.28-1.31.28zm.68-1.91c.32 0 .6-.07.86-.21s.49-.32.68-.56.35-.51.46-.81.18-.61.2-.93c.05-.58-.07-1.05-.36-1.41-.3-.36-.69-.54-1.19-.54-.33 0-.62.07-.89.21s-.5.32-.7.55-.36.49-.48.78c-.12.3-.19.61-.21.93-.03.57.1 1.04.4 1.42.3.37.71.56 1.24.56zm1.61 1.72.16-1.47 1.08-6.44h2.09l-1.33 7.91h-1.99z"/><path d="m169.1 107.32c-.8 0-1.48-.18-2.05-.53-.56-.35-.99-.82-1.27-1.41s-.4-1.24-.35-1.95c.06-.88.3-1.64.7-2.3.41-.66.94-1.17 1.6-1.54s1.38-.55 2.18-.55c.61 0 1.17.1 1.66.3.5.2.91.47 1.26.82s.57.75.69 1.2l-2.02.62c-.13-.33-.32-.57-.59-.74s-.6-.25-.99-.25c-.41 0-.78.1-1.12.29-.33.19-.61.47-.82.81-.22.35-.35.76-.39 1.23-.04.38 0 .73.12 1.04s.32.56.59.74.6.28 1 .28.79-.1 1.13-.31.61-.47.8-.8l1.82.79c-.42.75-.97 1.31-1.65 1.69s-1.44.57-2.29.57z"/><path d="m173.64 107.13 1.33-7.91h2.09l-1.33 7.91zm2.8-9.19c-.33 0-.61-.12-.85-.36s-.36-.52-.36-.85.12-.61.36-.85.52-.36.85-.36.61.12.85.36.36.52.36.85-.12.61-.36.85-.52.36-.85.36z"/><path d="m181.29 107.32c-.83 0-1.56-.18-2.18-.55s-1.08-.88-1.36-1.54-.35-1.42-.21-2.29c.13-.77.4-1.45.82-2.04s.95-1.05 1.58-1.38 1.32-.49 2.07-.49c.84 0 1.57.18 2.19.55s1.07.88 1.34 1.54c.28.66.35 1.42.2 2.29-.13.77-.4 1.45-.82 2.04s-.95 1.05-1.57 1.38c-.63.33-1.32.49-2.06.49zm.07-1.93c.37 0 .71-.09 1.04-.27.32-.18.59-.43.81-.76s.37-.71.44-1.14c.07-.46.05-.86-.08-1.2s-.33-.6-.6-.78-.61-.28-1.01-.28c-.37 0-.71.09-1.04.27-.32.18-.59.43-.81.76s-.37.71-.46 1.14c-.07.46-.05.86.08 1.2s.33.6.62.78c.28.19.62.28 1.01.28zm-.34-7.15 1.93-2.18h2.34l-2.17 2.18z"/><path d="m186.12 107.13 1.33-7.91h1.96l-.09 1.03c.66-.81 1.5-1.22 2.5-1.22s1.66.3 2.08.89.52 1.49.31 2.7l-.76 4.51h-2.09l.68-4.07c.08-.53.09-.94.02-1.24s-.2-.51-.4-.64c-.19-.13-.44-.19-.74-.19-.52-.01-.95.14-1.29.44-.34.31-.58.75-.7 1.34l-.73 4.35h-2.09z"/><path d="m201.43 107.32c-.72 0-1.32-.17-1.82-.5s-.86-.8-1.08-1.39-.3-1.29-.21-2.08c.06-.61.2-1.18.42-1.71s.5-.99.85-1.38.76-.69 1.23-.91c.46-.22.98-.32 1.55-.32.71 0 1.27.17 1.68.51.42.34.71.8.87 1.38s.2 1.27.1 2.05c-.06.71-.2 1.33-.4 1.87-.21.54-.47.99-.79 1.36s-.69.65-1.09.84c-.41.19-.84.28-1.31.28zm.68-1.91c.32 0 .6-.07.86-.21s.48-.32.68-.56.35-.51.46-.81.18-.61.2-.93c.05-.58-.07-1.05-.36-1.41-.3-.36-.69-.54-1.19-.54-.33 0-.63.07-.89.21-.27.14-.5.32-.7.55s-.36.49-.48.78c-.12.3-.19.61-.21.93-.03.57.1 1.04.4 1.42.3.37.71.56 1.24.56zm1.61 1.72.16-1.47 1.6-9.6h2.09l-1.85 11.07h-1.99z"/><path d="m210.9 107.32c-.82-.04-1.52-.26-2.09-.64s-.98-.9-1.23-1.54-.31-1.38-.17-2.2c.14-.81.43-1.52.88-2.12s1.01-1.06 1.68-1.38 1.41-.45 2.21-.4c.79.03 1.45.24 1.98.61s.9.9 1.11 1.57c.21.68.23 1.48.06 2.42h-5.87c-.03.42.02.78.15 1.08s.32.53.58.69c.25.16.55.24.9.25.45.02.86-.07 1.23-.28.36-.21.64-.48.83-.82l1.71.81c-.26.48-.61.88-1.04 1.17-.43.3-.9.5-1.4.63-.5.12-1 .17-1.5.15zm-1.18-5.06h3.65c-.02-.51-.14-.91-.37-1.21s-.59-.46-1.1-.48-.95.12-1.32.43-.66.73-.86 1.27z"/><path d="m218.15 107.13 6.22-11.07h2.34l2.52 11.07h-2.18l-.54-2.44h-4.56l-1.34 2.44h-2.45zm4.84-4.35h3.12l-.9-4.02-2.21 4.02z"/><path d="m229.87 107.13 1.87-11.07h2.09l-1.87 11.07z"/><path d="m236.75 107.32c-.88 0-1.5-.22-1.87-.66s-.49-1.06-.35-1.86l.63-3.81h-1.28l.3-1.77h1.28l.41-2.47h2.09l-.41 2.47h1.98l-.3 1.77h-1.98l-.57 3.37c-.05.35-.03.61.08.77.11.17.3.25.58.25.11 0 .23-.03.37-.08s.29-.12.45-.21l.49 1.57c-.31.2-.63.36-.96.47-.34.12-.65.17-.95.17z"/><path d="m243.31 107.32c-.83 0-1.56-.18-2.18-.55s-1.08-.88-1.36-1.54-.35-1.42-.21-2.29c.13-.77.4-1.45.82-2.04s.95-1.05 1.58-1.38 1.32-.49 2.07-.49c.84 0 1.57.18 2.19.55s1.07.88 1.34 1.54c.28.66.35 1.42.2 2.29-.13.77-.4 1.45-.82 2.04s-.95 1.05-1.57 1.38c-.63.33-1.32.49-2.06.49zm.07-1.93c.37 0 .71-.09 1.04-.27.32-.18.59-.43.81-.76s.37-.71.44-1.14c.07-.46.05-.86-.08-1.2s-.33-.6-.6-.78-.61-.28-1.01-.28c-.37 0-.71.09-1.04.27s-.59.43-.81.76-.37.71-.46 1.14c-.07.46-.05.86.08 1.2s.33.6.62.78c.28.19.62.28 1.01.28z"/><path d="m251.81 107.13 1.85-11.07h2.26l4.16 7.48 1.25-7.48h2.15l-1.85 11.07h-2.15l-4.22-7.62-1.28 7.62z"/><path d="m263.47 107.13 1.33-7.91h2.09l-1.33 7.91zm2.8-9.19c-.33 0-.61-.12-.85-.36s-.36-.52-.36-.85.12-.61.36-.85.52-.36.85-.36.61.12.85.36.36.52.36.85-.12.61-.36.85-.52.36-.85.36z"/><path d="m269.54 107.13-1.91-7.91h2.14l1.22 5.54 3.05-5.54h2.18l-4.57 7.91h-2.1z"/><path d="m279.03 107.32c-.82-.04-1.52-.26-2.09-.64s-.98-.9-1.23-1.54-.31-1.38-.17-2.2c.14-.81.43-1.52.88-2.12s1.01-1.06 1.68-1.38 1.41-.45 2.21-.4c.79.03 1.45.24 1.98.61s.9.9 1.11 1.57c.21.68.23 1.48.06 2.42h-5.87c-.03.42.02.78.15 1.08s.32.53.58.69c.25.16.55.24.9.25.45.02.86-.07 1.23-.28.36-.21.64-.48.83-.82l1.71.81c-.26.48-.61.88-1.04 1.17-.43.3-.9.5-1.4.63-.5.12-1 .17-1.5.15zm-1.19-5.06h3.65c-.02-.51-.14-.91-.37-1.21s-.59-.46-1.1-.48-.95.12-1.32.43-.66.73-.86 1.27z"/><path d="m283.68 107.13 1.87-11.07h2.09l-1.87 11.07z"/><path d="m287.73 99.79 1.6-3.73h2.2l-2.18 3.73h-1.61zm3.1 0 1.6-3.73h2.2l-2.18 3.73h-1.61z"/><path d="m294.58 107.37c-.25 0-.47-.07-.66-.2s-.33-.3-.43-.51-.12-.44-.08-.7c.04-.31.19-.57.46-.8.26-.23.55-.34.85-.34.25 0 .47.06.66.19s.33.3.43.51.12.45.08.71c-.05.31-.21.57-.46.8s-.54.34-.85.34z"/></g></svg>