<?xml version="1.0" encoding="UTF-8"?><svg id="uuid-ebcf86ca-cc71-4ddf-bf56-4648872c6c32" xmlns="http://www.w3.org/2000/svg" viewBox="0 0 589.84 277.62"><g id="uuid-a1ad92ba-d597-47e2-9909-49cc79ba43cc"><path d="M205.66,114.01c.08-.44.42-2.52-.23-4.74v4.74c.08,0,.15,0,.23,0Z" style="fill:none;"/><path d="M167.12,209.95c-1.42,5.86-4.13,10.29-11.12,17.82-13.35,14.38-30.6,22.58-48.37,23.34-17.19.73-32.85-5.61-44.32-17.61-7.66-8.02-12.92-18.01-15.48-29.11l-2.6-.63c-.89-.22-3.62-.97-6.87-2.72,4.99,35.32,33.06,61.65,68.93,60.47h0c27.1-.89,52.06-17.03,66.74-40.7-1.65-3.14-3.33-6.37-5-9.75-.64-.37-1.28-.74-1.93-1.12Z" style="fill:none;"/><path d="M46.03,161.37v-40.83c-1.37-1.96-2.71-3.94-4-5.96l-4.45-.74v49.16l2.66-.33c1.92-.29,3.86-.73,5.79-1.3Z" style="fill:none;"/><path d="M175.57,134.46l-.12.14c-2,2.37-4.1,4.86-6.33,7.5,4.9,2.83,9.95,5.53,15.11,8.06,1.12.55,2.26,1.1,3.4,1.64v-27.63c-1.34.56-2.62,1.23-3.82,2.01-2.64,1.72-4.18,3.47-8.23,8.28Z" style="fill:none;"/><path d="M46.3,194.55c-.17-2.06-.26-4.14-.26-6.24v-17.46c-1.64.39-3.17.68-4.55.88-1.31.16-2.6.32-3.9.49v16.91c3.07,3.23,6.86,4.8,8.72,5.42Z" style="fill:none;"/><path d="M107.64,234.48c19.58-1.14,37.17-14.21,46.08-32.41-3.89-2.33-7.74-4.67-11.52-7.02-8.7-5.4-17.29-10.94-25.6-16.53-11.52,5.87-23.25,10.49-34.92,13.78-6.86,1.93-13.8,3.42-20.63,4.43,4.29,22.8,23.15,39.1,46.6,37.74Z" style="fill:none;"/><path d="M63.51,148.1c.91-1.18,1.86-2.33,2.85-3.45-2.14-2.12-4.22-4.3-6.24-6.52v14.78c1.07-1.65,2.2-3.27,3.39-4.81Z" style="fill:none;"/><path d="M188.64,229.08c.67,1.34,1.34,2.7,2.01,4.1,6.15,10.58,6.64,13.14,16.05,26.67-.66-47.96-.32-46.34-.93-90.45-.11-.04-.23-.09-.34-.13v2.37c0,20.4-5.94,40.27-16.79,57.44Z" style="fill:none;"/><path d="M46.03,101.11l-.19.04v-12.86l-8.27,1.8v14.48c2.8.47,5.62.94,8.45,1.41v-4.87Z" style="fill:none;"/><path d="M187.63,161.88c-2.46-1.12-4.94-2.28-7.43-3.51-9.46-4.65-17.76-9.41-24.98-14.01,6.39-7.53,10.58-12.49,13.25-15.66,4.15-4.93,6.4-7.61,10.34-10.18,3.17-2.07,6.25-3.29,8.82-4.04v-8.65c-.54.06-1.15.1-1.82.12-1.86.06-4.16-.07-6.64-.69-3.44-.86-5.87-2.35-7.35-3.44-3.16-2.03-6.37-2.64-9.25-2.55-5.75.19-10.16,3.18-10.16,3.18,0,0-5.96,2.82-15.62,7.14-1.83.17-3.6.28-5.32.33-23.33.75-36.42-8.53-43.42-16.85l-27.35,5.35v-.2l-.58.11v25.72c.94,1.18,1.91,2.35,2.91,3.54,5.61,6.6,11.24,12.19,16.55,16.89-2.59,2.17-5.73,5.18-8.83,9.19-2.38,3.08-4.19,6.03-5.54,8.55-1.49,1.01-3.2,2.06-5.1,3.1v21.43c0,.29,0,.57,0,.85,5.78-.87,12.16-2.18,19.06-4.13,14.6-4.11,27.43-9.89,37.99-15.62,9.27,6.32,19.2,12.81,29.83,19.4,3.37,2.09,6.75,4.14,10.14,6.18.95-3.06,1.68-6.22,2.13-9.45l9.9,10.46c-.23,2.11-.42,4.02-.6,5.77,2.49,1.44,4.97,2.88,7.46,4.29,1.08,2.26,2.17,4.43,3.26,6.56,5.3-11.44,8.32-24.18,8.32-37.53v-11.68Z" style="fill:none;"/><path d="M0,98.29c8.01,1.34,16.2,2.7,24.54,4.1v-9.46L0,98.29Z" style="fill:none;"/><path d="M187.63,173.56c0,13.35-3.02,26.09-8.32,37.53,3.09,6.04,6.22,11.76,9.34,17.99,10.85-17.17,16.79-37.04,16.79-57.44v-2.37c-5.76-2.17-11.72-4.62-17.8-7.39v11.68Z" style="fill:#0f1b3a;"/><path d="M205.43,96.54v-38.26h-.07s0-14.55,0-14.55h.07v-17.6L67.06,58.47v.04l-21.02,4.91v15.21l13.94-3.04v-.09l127.66-27.88v48.48c3.01-.88,5.86-1.12,7.61-1.18,3-.1,6.78.19,10.19,1.64Z" style="fill:#0f1b3a;"/><path d="M191.43,122.93c-1.32.31-2.59.73-3.81,1.23v27.63c5.76,2.73,11.72,5.3,17.8,7.68v-36.31c-4.85.07-11.35-.14-14-.23Z" style="fill:#0f1b3a;"/><path d="M190.63,113.74s8.9.37,14.8.27v-4.74c-.33-1.11-.9-2.26-1.9-3.25-1.49-1.47-4.69-2.08-8-1.98-2.83.09-5.74.71-7.74,1.76-.05,0-.11,0-.17.02v8.65c1.11-.32,2.12-.56,3.01-.73Z" style="fill:#0f1b3a;"/><path d="M33.47,172.73c-.46,2.22-.77,5.21-.09,8.41.71,3.4,2.32,6,4.21,7.98v-16.91c-1.37.17-2.75.34-4.11.51Z" style="fill:#0f1b3a;"/><polygon points="37.58 57.84 183.91 22.77 183.91 22.68 205.43 17.49 205.43 0 24.54 46.35 24.54 59.81 24.54 60.99 24.54 83.56 37.58 80.72 37.58 57.84" style="fill:#0f1b3a;"/><path d="M182.41,237.14c-2.38-4.95-4.83-9.62-7.21-14.13-.38-.72-.77-1.46-1.15-2.19-14.68,23.66-39.64,39.81-66.74,40.7h0c-35.87,1.17-63.95-25.16-68.93-60.47-.79-.43-1.62-.91-2.46-1.47-5.93-3.93-9.85-9.46-11.37-16.02v7.57c0,23.49,8,45.08,22.87,61.17,15.32,16.59,36.44,25.72,59.89,25.31,24.54-.43,48.67-11.23,67.55-30.91,2.78-2.9,5.38-5.93,7.8-9.07l-.1-.16-.16-.33Z" style="fill:#0f1b3a;"/><path d="M24.54,92.93v9.46c4.3.72,8.65,1.44,13.04,2.18v-14.48l-13.04,2.85Z" style="fill:#0f1b3a;"/><polygon points="32.33 163.65 37.54 163 37.58 163 37.58 113.84 24.54 111.66 24.54 170.71 25.85 164.46 32.33 163.65" style="fill:#0f1b3a;"/><path d="M58.33,155.81c.57-.98,1.17-1.94,1.79-2.9v-14.78c-1.38-1.51-2.74-3.04-4.06-4.6-3.52-4.15-6.87-8.5-10.02-13v40.83c1.04-.31,2.08-.64,3.12-1.02,3.12-1.16,6.2-2.68,9.18-4.54Z" style="fill:#af1515;"/><path d="M107.64,234.48c-23.45,1.37-42.31-14.94-46.6-37.74-.24.04-.49.08-.73.11l-.36.05-.36.02c-.57.04-1.46.22-2.45.86-.8.53-1.55,1.28-2.15,2.18l-3.55,5.29-3.6-.87c2.57,11.1,7.82,21.09,15.48,29.11,11.47,12.01,27.13,18.34,44.32,17.61,17.77-.76,35.02-8.96,48.37-23.34,6.99-7.53,9.7-11.96,11.12-17.82-4.51-2.6-8.99-5.23-13.41-7.88-8.9,18.2-26.49,31.27-46.08,32.41Z" style="fill:#af1515;"/><path d="M98.8,90.98l63.15-12.35v-.08l14.96-2.93v-17.06l-87.62,18.47.27.99c.26.8,2.52,7.16,9.23,12.96Z" style="fill:#af1515;"/><path d="M46.03,170.85v17.46c0,2.11.09,4.19.26,6.24.59.2.98.3,1.1.33.8-1.19,2.32-3.15,4.73-4.73,2.87-1.88,5.53-2.26,6.88-2.34.37-.05.74-.11,1.12-.17,0-.28,0-.57,0-.85v-21.43c-2.31,1.27-4.9,2.5-7.77,3.57-2.25.84-4.36,1.46-6.31,1.93Z" style="fill:#af1515;"/><path d="M46.03,101.11v4.87c.52.09,1.04.17,1.57.26,3.39,5.56,7.52,11.61,12.51,17.84v-25.72l.58-.11v.2l27.35-5.35c-5.49-6.52-7.24-12.44-7.24-12.44l-34.96,7.63v12.86l.19-.04Z" style="fill:#af1515;"/><path d="M180.19,158.37c-9.46-4.65-17.76-9.41-24.98-14.01,6.39-7.53,10.58-12.49,13.25-15.66,4.15-4.93,6.4-7.61,10.34-10.18,4.53-2.96,8.9-4.19,11.83-4.77,0,0,9.13.38,15.02.27.12-.66.85-5.04-2.12-7.98-1.49-1.47-4.69-2.08-8-1.98-2.83.09-5.74.71-7.74,1.76-.58.06-1.25.12-1.98.14-1.86.06-4.16-.07-6.64-.69-3.44-.86-5.87-2.35-7.35-3.44-3.16-2.03-6.37-2.64-9.25-2.55-5.75.19-10.16,3.18-10.16,3.18,0,0-5.96,2.82-15.62,7.14-1.83.17-3.6.28-5.32.33-41.63,1.34-50.66-29.29-50.66-29.29L0,98.29c15.26,2.55,31.11,5.19,47.6,7.95,4.03,6.61,9.09,13.91,15.43,21.38,5.61,6.6,11.24,12.19,16.55,16.89-2.59,2.17-5.73,5.18-8.83,9.19-2.38,3.08-4.19,6.03-5.54,8.55-3.32,2.23-7.65,4.73-12.87,6.67-4.14,1.54-7.83,2.37-10.86,2.81-2.69.34-5.36.67-8.01,1-.46,2.22-.77,5.21-.09,8.41,2.25,10.67,13.32,13.56,14.02,13.73.8-1.19,2.32-3.15,4.73-4.73,2.87-1.88,5.53-2.26,6.88-2.34,6.07-.87,12.83-2.22,20.18-4.29,14.6-4.11,27.43-9.89,37.99-15.62,9.27,6.32,19.2,12.81,29.83,19.4,9.65,5.98,19.34,11.73,29.03,17.24,4.8,10.01,9.72,18.47,14.61,28.66,6.15,10.58,6.64,13.14,16.05,26.67-.66-47.96-.32-46.34-.93-90.45-8.19-3.08-16.79-6.71-25.58-11.04Z" style="fill:#0f1b3a;"/><path d="M301.35,205.54h-21.26l-3.95,9.77h-14.51l22.2-50.29h14.01l22.27,50.29h-14.8l-3.95-9.77ZM297.18,195.05l-6.47-16.09-6.47,16.09h12.93Z" style="fill:#0f1b3a;"/><path d="M324.19,162.01h13.65v53.3h-13.65v-53.3Z" style="fill:#0f1b3a;"/><path d="M381.55,178.17c2.9,1.63,5.2,3.96,6.9,7,1.7,3.04,2.55,6.57,2.55,10.6s-.85,7.57-2.55,10.63c-1.7,3.07-4,5.42-6.9,7.08-2.9,1.65-6.12,2.48-9.66,2.48-5.12,0-8.96-1.51-11.49-4.53v3.88h-13v-53.3h13.65v17.74c2.63-2.68,6.25-4.02,10.85-4.02,3.54,0,6.76.81,9.66,2.44ZM374.91,202.63c1.53-1.65,2.3-3.94,2.3-6.86s-.77-5.12-2.3-6.75c-1.53-1.63-3.5-2.44-5.89-2.44s-4.36.81-5.89,2.44c-1.53,1.63-2.3,3.88-2.3,6.75s.77,5.21,2.3,6.86c1.53,1.65,3.5,2.48,5.89,2.48s4.36-.83,5.89-2.48Z" style="fill:#0f1b3a;"/><path d="M428.57,180.15c3.4,2.95,5.1,7.46,5.1,13.54v21.62h-12.72v-5.03c-1.96,3.78-5.8,5.67-11.49,5.67-3.02,0-5.63-.53-7.83-1.58-2.2-1.05-3.87-2.48-4.99-4.27-1.13-1.8-1.69-3.84-1.69-6.14,0-3.69,1.41-6.55,4.24-8.58,2.82-2.04,7.18-3.05,13.07-3.05h7.76c-.24-4.12-2.99-6.18-8.26-6.18-1.87,0-3.76.3-5.67.9-1.92.6-3.54,1.43-4.89,2.48l-4.6-9.27c2.15-1.44,4.78-2.55,7.87-3.34,3.09-.79,6.19-1.18,9.3-1.18,6.46,0,11.4,1.47,14.8,4.42ZM417.44,206.19c1.2-.77,2.06-1.89,2.59-3.38v-3.38h-5.89c-3.98,0-5.96,1.32-5.96,3.95,0,1.2.45,2.16,1.36,2.87.91.72,2.16,1.08,3.74,1.08s2.97-.38,4.17-1.15Z" style="fill:#0f1b3a;"/><path d="M469.87,213.73c-1.15.72-2.55,1.27-4.2,1.65-1.65.38-3.41.57-5.28.57-5.08,0-8.98-1.24-11.71-3.74-2.73-2.49-4.09-6.2-4.09-11.13v-13.07h-5.67v-10.2h5.67v-10.13h13.65v10.13h8.91v10.2h-8.91v12.93c0,1.39.37,2.48,1.11,3.27.74.79,1.74,1.18,2.98,1.18,1.58,0,2.97-.41,4.17-1.22l3.38,9.55Z" style="fill:#0f1b3a;"/><path d="M494.26,177.06c2.23-.89,4.78-1.33,7.65-1.33v12.28c-1.25-.14-2.27-.22-3.09-.22-2.92,0-5.21.79-6.86,2.37-1.65,1.58-2.48,4-2.48,7.26v17.89h-13.65v-38.93h13v4.67c1.39-1.77,3.2-3.1,5.42-3.99Z" style="fill:#0f1b3a;"/><path d="M516.14,213.37c-3.35-1.72-5.97-4.12-7.87-7.18-1.89-3.06-2.84-6.54-2.84-10.42s.95-7.28,2.84-10.34c1.89-3.06,4.5-5.45,7.83-7.15,3.33-1.7,7.1-2.55,11.31-2.55s8,.85,11.35,2.55c3.35,1.7,5.96,4.07,7.83,7.11,1.87,3.04,2.8,6.5,2.8,10.38s-.93,7.35-2.8,10.42c-1.87,3.07-4.48,5.46-7.83,7.18-3.35,1.72-7.14,2.59-11.35,2.59s-7.93-.86-11.28-2.59ZM533.31,202.63c1.53-1.65,2.3-3.94,2.3-6.86s-.77-5.12-2.3-6.75c-1.53-1.63-3.5-2.44-5.89-2.44s-4.36.81-5.89,2.44c-1.53,1.63-2.3,3.88-2.3,6.75s.77,5.21,2.3,6.86,3.5,2.48,5.89,2.48,4.36-.83,5.89-2.48Z" style="fill:#0f1b3a;"/><path d="M560.96,214.84c-3.16-.74-5.7-1.71-7.62-2.91l4.09-9.34c1.77,1.1,3.88,1.98,6.32,2.62s4.86.97,7.26.97c2.2,0,3.77-.23,4.71-.68.93-.45,1.4-1.11,1.4-1.98s-.56-1.47-1.69-1.83c-1.13-.36-2.91-.71-5.35-1.04-3.11-.38-5.76-.89-7.94-1.51-2.18-.62-4.06-1.77-5.64-3.45-1.58-1.68-2.37-4.02-2.37-7.04,0-2.49.74-4.71,2.23-6.64,1.48-1.94,3.65-3.47,6.5-4.6,2.85-1.13,6.26-1.69,10.24-1.69,2.83,0,5.63.29,8.4.86s5.1,1.39,6.97,2.44l-4.09,9.27c-3.45-1.91-7.18-2.87-11.21-2.87-2.15,0-3.74.25-4.74.75-1.01.5-1.51,1.16-1.51,1.98,0,.91.55,1.54,1.65,1.9,1.1.36,2.92.73,5.46,1.11,3.21.48,5.87,1.03,7.97,1.65,2.11.62,3.94,1.76,5.5,3.41,1.56,1.65,2.33,3.96,2.33,6.93,0,2.44-.74,4.63-2.23,6.57-1.48,1.94-3.68,3.46-6.57,4.56-2.9,1.1-6.38,1.65-10.45,1.65-3.26,0-6.47-.37-9.63-1.11Z" style="fill:#0f1b3a;"/><path d="M299.93,60.51h11.28v17.82c-4.98,5.56-11.88,8.33-20.69,8.33-7.38,0-13.57-2.44-18.57-7.33-5.01-4.88-7.51-11.05-7.51-18.5s2.55-13.66,7.65-18.64c5.1-4.98,11.25-7.47,18.46-7.47s13.47,2.37,18.78,7.11l-5.82,8.4c-2.25-1.96-4.32-3.32-6.21-4.06-1.89-.74-3.94-1.11-6.14-1.11-4.26,0-7.85,1.45-10.78,4.35-2.92,2.9-4.38,6.72-4.38,11.46s1.4,8.54,4.2,11.39c2.8,2.85,6.14,4.27,10.02,4.27s7.11-.74,9.7-2.23v-13.79Z" style="fill:#0f1b3a;"/><path d="M341.17,56.91c-3.21,0-5.6,1.14-7.18,3.41-1.58,2.28-2.37,5.28-2.37,9.02v16.74h-10.78v-38.65h10.78v5.1c1.39-1.58,3.13-2.92,5.21-4.02,2.08-1.1,4.2-1.68,6.36-1.72l.07,10.13h-2.08Z" style="fill:#0f1b3a;"/><path d="M376.01,68.26v-20.83h10.85v38.65h-10.85v-5.1c-2.68,3.78-6.14,5.68-10.38,5.68s-7.79-1.33-10.67-3.99c-2.87-2.66-4.31-6.6-4.31-11.82v-23.42h10.85v21.05c0,5.94,2.18,8.91,6.54,8.91,2.16,0,4.02-.78,5.6-2.33,1.58-1.56,2.37-3.82,2.37-6.79Z" style="fill:#0f1b3a;"/><path d="M420.26,46.79c4.5,0,8.51,1.88,12.03,5.64,3.52,3.76,5.28,8.49,5.28,14.19s-1.76,10.46-5.28,14.3c-3.52,3.83-7.64,5.75-12.36,5.75s-8.51-1.89-11.39-5.68v19.04h-10.78v-52.58h10.78v4.31c3.3-3.3,7.21-4.96,11.71-4.96ZM408.41,66.79c0,3.14.87,5.7,2.62,7.69,1.75,1.99,3.87,2.98,6.36,2.98s4.67-.99,6.54-2.98c1.87-1.99,2.8-4.54,2.8-7.65s-.91-5.72-2.73-7.83c-1.82-2.11-4-3.16-6.54-3.16s-4.68,1.04-6.43,3.12c-1.75,2.08-2.62,4.69-2.62,7.83Z" style="fill:#0f1b3a;"/><path d="M484.98,66.76c0,5.6-1.94,10.32-5.82,14.15-3.88,3.83-8.75,5.75-14.62,5.75s-10.74-1.91-14.62-5.75c-3.88-3.83-5.82-8.55-5.82-14.15s1.94-10.33,5.82-14.19c3.88-3.85,8.75-5.78,14.62-5.78s10.74,1.93,14.62,5.78c3.88,3.86,5.82,8.58,5.82,14.19ZM454.96,66.76c0,3.16.9,5.74,2.69,7.72,1.8,1.99,4.09,2.98,6.9,2.98s5.1-.99,6.9-2.98c1.8-1.99,2.69-4.56,2.69-7.72s-.9-5.75-2.69-7.76c-1.8-2.01-4.09-3.02-6.9-3.02s-5.1,1.01-6.9,3.02c-1.8,2.01-2.69,4.6-2.69,7.76Z" style="fill:#0f1b3a;"/><path d="M291.34,143.22c5.51,0,10.01-2.18,13.51-6.54l7.18,7.4c-5.7,6.42-12.42,9.63-20.15,9.63s-14.1-2.44-19.11-7.33c-5.01-4.88-7.51-11.05-7.51-18.5s2.55-13.66,7.65-18.64c5.1-4.98,11.34-7.47,18.71-7.47,8.24,0,15.13,3.14,20.69,9.41l-6.97,7.9c-3.54-4.41-7.95-6.61-13.22-6.61-4.22,0-7.82,1.38-10.81,4.13-2.99,2.75-4.49,6.47-4.49,11.13s1.41,8.42,4.24,11.24c2.83,2.83,6.25,4.24,10.27,4.24Z" style="fill:#0f1b3a;"/><path d="M344.86,135.32v-20.83h10.85v38.65h-10.85v-5.1c-2.68,3.78-6.14,5.67-10.38,5.67s-7.79-1.33-10.67-3.99c-2.87-2.66-4.31-6.6-4.31-11.82v-23.42h10.85v21.05c0,5.94,2.18,8.91,6.54,8.91,2.16,0,4.02-.78,5.6-2.33,1.58-1.56,2.37-3.82,2.37-6.79Z" style="fill:#0f1b3a;"/><path d="M377.4,153.14h-10.78v-53.3h10.78v53.3Z" style="fill:#0f1b3a;"/><path d="M401.17,122.25v17.31c0,1.48.38,2.65,1.15,3.48.77.84,1.68,1.26,2.73,1.26,2.01,0,3.71-.91,5.1-2.73l4.02,7.54c-3.35,3.07-6.89,4.6-10.6,4.6s-6.85-1.22-9.41-3.66-3.84-5.77-3.84-9.98v-17.82h-4.53v-7.76h4.53v-11.57h10.85v11.57h9.34v7.76h-9.34Z" style="fill:#0f1b3a;"/><path d="M445.57,135.32v-20.83h10.85v38.65h-10.85v-5.1c-2.68,3.78-6.14,5.67-10.38,5.67s-7.79-1.33-10.67-3.99c-2.87-2.66-4.31-6.6-4.31-11.82v-23.42h10.85v21.05c0,5.94,2.18,8.91,6.54,8.91,2.16,0,4.02-.78,5.6-2.33,1.58-1.56,2.37-3.82,2.37-6.79Z" style="fill:#0f1b3a;"/><path d="M487.66,123.97c-3.21,0-5.6,1.14-7.18,3.41-1.58,2.28-2.37,5.28-2.37,9.02v16.74h-10.78v-38.65h10.78v5.1c1.39-1.58,3.13-2.92,5.21-4.02,2.08-1.1,4.2-1.68,6.36-1.72l.07,10.13h-2.08Z" style="fill:#0f1b3a;"/><path d="M530.05,153.14h-10.13v-4.67c-2.78,3.5-6.21,5.24-10.31,5.24s-7.53-1.18-10.31-3.56c-2.78-2.37-4.17-5.53-4.17-9.48s1.44-6.91,4.31-8.87c2.87-1.96,6.8-2.95,11.78-2.95h8.05v-.22c0-4.12-2.18-6.18-6.54-6.18-1.87,0-3.84.37-5.93,1.11-2.08.74-3.84,1.66-5.28,2.77l-4.81-6.97c5.08-3.69,10.87-5.53,17.38-5.53,4.69,0,8.52,1.17,11.49,3.52,2.97,2.35,4.45,6.06,4.45,11.13v24.64ZM519.2,138.41v-1.87h-6.75c-4.31,0-6.47,1.34-6.47,4.02,0,1.39.51,2.45,1.54,3.2,1.03.74,2.5,1.11,4.42,1.11s3.6-.59,5.06-1.76c1.46-1.17,2.19-2.74,2.19-4.71Z" style="fill:#0f1b3a;"/><path d="M551.38,153.14h-10.78v-53.3h10.78v53.3Z" style="fill:#0f1b3a;"/></g></svg>