<?xml version="1.0" encoding="UTF-8"?><svg id="uuid-22916780-fc62-42df-8546-9cbbeb87a89a" xmlns="http://www.w3.org/2000/svg" viewBox="0 0 456.82 557.95"><g id="uuid-514850e9-3619-46c8-8895-73996de923f3"><path d="M420.12,109.86h-.01v-27.45l.12-.03v-33.13l-260.75,60.93v.07l-39.63,9.25v21.4l266.82-53.44v95.7c2.33,1.17,4.6,2.51,6.8,4.03l.55.38.53.42c2.59,2.06,5.64,3.6,9.06,4.57,2.84.8,5.92,1.22,9.12,1.22,2.52-.91,5.05-1.58,7.5-2.09v-81.84l-.12.02Z" style="fill:#fff;"/><path d="M103.94,325.6v-84.29c-4.04-5.99-7.93-12.1-11.64-18.31l-12.93-2.59v109.91l5.51-.51c6.32-.73,12.73-2.15,19.06-4.22Z" style="fill:#fff;"/><polygon points="103.94 109 79.38 114.93 79.38 148.38 103.94 143.84 103.94 109" style="fill:#fff;"/><path d="M406.83,258.97c-6,3.64-9.54,7.43-18.89,17.83l-.27.29c-.32.36-.66.73-.98,1.09v23.32c6.37,3.71,12.83,7.33,19.38,10.82,4.66,2.48,9.39,4.91,14.19,7.29v-66.41c-4.77,1.32-9.27,3.24-13.42,5.76Z" style="fill:#fff;"/><path d="M348.09,434.34c-28.19,34.49-68.99,57.05-112.76,58.48-55.07,1.8-100.38-30.8-120.37-78.92l-8.25,11.46-13.66-3.78c-.71-.2-1.95-.57-3.57-1.15,7.27,20.51,18.36,39.17,32.98,55.01,28.88,31.25,68.67,48.47,112.87,47.7,46.24-.8,91.73-21.16,127.29-58.24,3.13-3.27,6.14-6.63,9.04-10.07-1.25-2.67-2.5-5.36-3.75-8.11-6.65-4.1-13.26-8.23-19.83-12.39Z" style="fill:#fff;"/><polygon points="103.94 106.75 103.94 109 116.42 105.99 116.42 106.37 379.68 42.91 379.68 42.74 420.24 32.96 420.24 0 79.38 87.35 79.38 114.93 79.38 114.93 79.38 112.71 103.94 106.75" style="fill:#fff;"/><polygon points="103.94 106.75 79.38 112.71 79.38 114.93 103.94 109 103.94 106.75" style="fill:#fff;"/><path d="M137.68,299.1c2.12-2.57,4.31-5.06,6.58-7.47-7.75-8.18-15.15-16.7-22.11-25.46-.77-.97-1.52-1.95-2.28-2.92v55.74c1.93-.98,3.85-2.01,5.75-3.11,3.65-5.87,7.7-11.49,12.07-16.78Z" style="fill:#fff;"/><path d="M305.49,406.62c-18.01,20.31-42.79,33.69-69.55,35.24-32.41,1.88-60.15-14.16-75.83-39.79-9.92,2.03-19.84,3.65-29.66,4.84,5.39,12.27,12.76,23.45,21.99,33.11,21.62,22.62,51.12,34.57,83.52,33.19,33.48-1.43,65.99-16.88,91.15-43.98,1.72-1.85,3.29-3.59,4.74-5.27-7.6-4.91-15.12-9.84-22.53-14.77-1.28-.85-2.55-1.72-3.83-2.57Z" style="fill:#fff;"/><path d="M338.32,148.19v-.16l28.2-5.52v-32.15l-165.76,34.94c.7,2.3,4.82,14.41,16.68,26.52l120.88-23.63Z" style="fill:#fff;"/><path d="M386.68,248.66c2.93-2.62,5.94-4.89,9.56-7.09,9-5.46,17.6-8.01,24-9.28.93-.19,1.82-.34,2.65-.48,0,0,20.27,1.49,33.4,1.67.32-1.46,2.25-11.16-4.15-17.91-3.2-3.38-10.28-4.98-17.66-4.98-4.99,0-10.09.73-14.24,2.12-1.1.37-2.15.77-3.1,1.24-1.3.1-2.78.17-4.42.17-4.13,0-9.24-.45-14.72-2.01-4.61-1.31-8.36-3.11-11.32-4.88-1.92-1.15-3.52-2.29-4.77-3.29-6.89-4.74-13.98-6.32-20.38-6.32-12.81,0-22.83,6.33-22.83,6.33,0,0-13.45,5.84-35.26,14.76-4.08.25-8.03.36-11.85.36-53.97,0-82.57-23.31-97.06-42.79-10.4-13.98-13.53-25.98-13.53-25.98h0s-32.46,5.99-32.46,5.99l-44.59,8.24-24.57,4.54L0,183.75c25.68,5.15,52.13,10.44,79.38,15.9,8.12,1.63,16.31,3.27,24.57,4.92.46.09.91.18,1.37.27,4.26,7.53,9.08,15.46,14.55,23.65,5.42,8.13,11.48,16.52,18.23,25.01,2.76,3.48,5.53,6.82,8.3,10.06,9.25,10.82,18.47,20.36,27.3,28.7-5.92,4.63-13.11,11.1-20.31,19.81-2.62,3.16-4.93,6.27-6.99,9.25-2.29,3.32-4.26,6.48-5.94,9.38-5.64,3.54-12.56,7.36-20.6,10.71h0c-2.71,1.13-5.55,2.21-8.51,3.2-2.55.86-5.02,1.59-7.41,2.23-6.32,1.69-12.04,2.68-16.96,3.24-2.55.24-5.08.47-7.61.7-3.44.32-6.87.64-10.28.95-1.19,4.91-2.08,11.54-.81,18.71,1.9,10.75,7.9,18.11,14.05,23.01,7.53,5.99,15.3,8.29,16.15,8.52,1.71-2.38,4.84-6.15,9.58-9.34.42-.28.84-.57,1.28-.84,5.82-3.55,11.16-4.45,14.4-4.66h0c.39-.03.75-.04,1.08-.05,8.27-.91,17.13-2.21,26.51-4.01,6.01-1.15,12.24-2.5,18.69-4.09,32.78-8.1,61.74-20.03,85.63-32.02,19.29,14.1,39.92,28.55,61.96,43.28,1,.67,2,1.34,3.01,2.01,7.69,5.12,15.4,10.15,23.11,15.12,5.44,3.51,10.88,6.99,16.33,10.43,7.96,5.03,15.92,10,23.88,14.88.54,1.24,1.09,2.46,1.64,3.67,9.45,21.03,19.22,39.35,28.81,61.11,12.92,23.97,13.81,29.69,33.79,60.47,1.97-106.72,2.6-103.11,4.41-201.25-10.79-4.46-21.9-9.38-33.21-14.81-7.55-3.63-15.19-7.47-22.9-11.57-3.34-1.78-6.59-3.56-9.8-5.34-16.67-9.28-31.57-18.61-44.76-27.62,14.75-16.28,24.42-27.01,30.59-33.87,5.71-6.35,9.86-10.97,14.17-14.83Z" style="fill:#fff;"/></g></svg>