<?xml version="1.0" encoding="UTF-8"?><svg id="uuid-9ee25ac1-ed2a-4b57-8942-e2e9afa3bf38" xmlns="http://www.w3.org/2000/svg" viewBox="0 0 837.32 617.74"><path d="M837.32,59.25c-20.03,108.31-60.54,211.46-123.5,301.73-76.86,110.18-184.66,195.08-303.26,256.77C196.88,507.43,48.96,300.47,0,65.93,63.85,46.78,128.46,29.61,194.34,18.43,409.31-18.06,628.26,1.74,837.32,59.25Z" style="fill:#010165;"/><path d="M826.88,65.23c-38.12,229.17-190.06,422.01-392.74,529.95C248.89,498.52,118.8,333.21,56.48,134.72c-7.17-22.83-14.03-47.5-17.93-70.88,59.02-17.97,119.5-32.01,180.64-41.2,203.51-30.62,409.96-11.41,607.7,42.6Z" style="fill:#fcfcfc;"/><path d="M518.91,271.48c1.15,2.55-2.95,4.5-2.95,5.16v40.53h-17.68c3.88-9.66,4.12-25.61,3.04-36.21-.47-4.58-2.03-5.6-3.05-9.48h20.64Z" style="fill:#c30d0c;"/><path d="M315.49,271.48c1.15,2.55-2.95,4.5-2.95,5.16v40.53h-17.68c3.88-9.66,4.12-25.61,3.04-36.21-.47-4.58-2.03-5.6-3.05-9.48h20.64Z" style="fill:#c30d0c;"/><path d="M481.86,271.67l11.98,45.49h-19.15c2.52-8.24,3.06-13.06-7.38-11.79-1.52-5.47,6.05-1.83,7.37-2.95l-5.9-30.94,13.08.19Z" style="fill:#c30d0c;"/><path d="M428.99,271.48v40.53c0,.66,4.1,2.61,2.95,5.16h-20.64c-1.09-4.42,2.66-1.52,3.08-5.05.86-7.23.86-28.37,0-35.6-.28-2.31-5.67-2.97-3.07-5.04,1.03-.81,14.68.57,17.68,0Z" style="fill:#c30d0c;"/><path d="M387.72,271.48c-.22,3.34-2.5,4.2-3.03,8.02-.77,5.58-.74,24.01,0,29.64.46,3.46,6.03,9.55.79,9.55-24.34.01-12.64-25.45-15.49-40.54-.54-2.86-3.3-3.74-2.91-6.67h20.64Z" style="fill:#c30d0c;"/><path d="M269.79,271.48c-.22,3.34-2.5,4.2-3.03,8.02-.77,5.58-.74,24.01,0,29.64.46,3.46,6.03,9.55.79,9.55-24.34.01-12.64-25.45-15.49-40.54-.54-2.86-3.3-3.74-2.91-6.67h20.64Z" style="fill:#c30d0c;"/><path d="M352.34,271.48v40.53c0,.65,4.04,2.52,2.94,5.15-3.47-.42-20.62,1.49-20.6-2.2,0-.33,2.61-2.21,3.01-5.82.64-5.74-1.42-36.34-.09-37.67h14.75Z" style="fill:#c30d0c;"/><path d="M454.05,314.22c-2.52,1.67-5.12,4.07-8.24,4.42-12.01,1.36-8.13-8.39-9.75-15.18-.71-2.99-3.72-4.86-4.18-7.75s2.59-1.75,3.48-3.9c3.33-8.08-.21-13.4-3.41-20.33,18.97-2.01,24.24,14.71,8.84,25.03,8.69.3,9.7,7.27,8.86,14.75l4.4-1.47c.09,1.46-.08,2.95.01,4.42Z" style="fill:#c30d0c;"/><path d="M228.51,271.48c-.93,4.54-3.82,5.68-4.45,11.01s-.74,21.14.12,26.48c.56,3.49,7.42,10.32,2.16,9.66-24.19-3.07-21.9-45.44,2.17-47.15Z" style="fill:#c30d0c;"/><path d="M288.95,271.48c.27,3.82-3.66,4.25-4.38,8.13-2.47,13.15,6.99,35.04-11.82,39.02-.35-4.32,4.54-4.37,6.55-7.44,3-4.57,3.12-24.27,2.2-30.06-.7-4.38-4.05-5.68-4.33-9.65h11.78Z" style="fill:#c30d0c;"/><path d="M406.87,271.48c.27,3.82-3.66,4.25-4.38,8.13-2.47,13.15,6.99,35.04-11.82,39.02-.35-4.32,4.54-4.37,6.55-7.44,3-4.57,3.12-24.27,2.2-30.06-.7-4.38-4.05-5.68-4.33-9.65h11.78Z" style="fill:#c30d0c;"/><path d="M454.05,314.22c1.35-.89,3.37-.75,4.51-2.48,3.27-4.94,5.15-18.63,7.11-25.04.73-2.4-1.19-4.16,3.12-3.43,1.48,6.64-8.21,25.05-5.2,29.53.9,1.34,4.14,1.04,3.73,2.14-1.02,2.73-12.31,2.93-13.27,2.21-.2-.15.05-2.29,0-2.94Z" style="fill:#c30d0c;"/><path d="M244.73,271.48v17.69c-6.6,1.29-3.39-2.42-5.53-6.98-1.94-4.14-7.44-5.88-7.72-10.7,2.82-.59,5.74,2.66,8.13,2.38,1.68-.2,2.5-3.23,5.12-2.38Z" style="fill:#c30d0c;"/><path d="M327.29,317.17c-2.18-.36-11.3.5-11.81-.01-3.08-3.18,4.76-6.12,5.99-8.01s1.85-8.16,3.6-8.17c3.39-.02,2,13.38,2.22,16.19Z" style="fill:#c30d0c;"/><path d="M530.71,317.17c-2.18-.36-11.3.5-11.81-.01-3.08-3.18,4.76-6.12,5.99-8.01s1.85-8.16,3.6-8.17c3.39-.02,2,13.38,2.22,16.19Z" style="fill:#c30d0c;"/><path d="M364.14,271.47c1.07,24.53-4.45,16.58-8.84.02l8.84-.02Z" style="fill:#c30d0c;"/><path d="M336.12,271.48c-5.15,15.98-9.5,25.13-8.84-.02l8.84.02Z" style="fill:#c30d0c;"/><path d="M231.48,318.63c.37-4.38,5.25-5.49,8.05-8.88,1.12-1.36,2.28-6.14,2.99-5.84,7.3,3.09-5.57,17.21-11.04,14.72Z" style="fill:#c30d0c;"/><path d="M673.69,216.94c-79.73,99.49-147.48,196.19-216.06,303.51-.77,1.21-6.14,11.25-7.99,8.95,5.4-36.27,7.93-73.13,2.76-109.62-2.59-18.29-8.44-37.18-11.61-55.44l4.49.97c14.58,23.96,28.8,48.58,31.61,77.13,15.55-23.55,31.47-46.83,48.8-69.11,44.58-57.31,94.58-107.65,146.52-157.86,2.07-1.95,2.83-1.13,1.47,1.47Z" style="fill:#000365;"/><path d="M716.43,165.36l-20.65,75.15c-2.57.35-1.39-3.35-1.46-5.13-.54-14.01,0-28.05-1.48-42.02l-50.1,11.77,73.69-39.77Z" style="fill:#bf080d;"/><path d="M672.21,215.47c3.3-3.19,6.53-9.79,11.79-10.3-2.42,4.29-7.43,8.18-10.32,11.78l-1.47-1.47Z" style="fill:#484848;"/><path d="M750.9,106.29c-33.28-13.76-64.63-31.93-97.32-46.85-12.13-5.54-25.73-13.91-39.22-11.62l-152.29,34.62c-9.97-23.48-54.28-24.66-62.6.38-46.46-8.76-92.13-22.71-138.5-31.71-24.26-4.71-24.32-4.95-46.71,4.91-30.92,13.62-71.6,31.99-100.79,48.08-2.91,1.6-7.92,3.97-3.58,6.71,38.18-6.54,76.16-20.18,113.88-27.6,12.75-2.51,24.88-4.17,37.99-3.42l135.36,7.62c2.42.85,2.75,6.16,4.36,8.91,11.56,19.77,57.35,16.25,60.79-9.17,52.08-.64,103.99-6.75,156.12-7.26l133.42,30.92-.91-4.52ZM443.73,88.7c-2.84,3.78-24.41,4.24-27.97-2.19,3.22-8.31,32.71-4.09,27.97,2.19Z" style="fill:#000365;"/><path d="M644.21,140.3c-4.99-5.5-2.69-11.68,3.38-15.04,13.33-7.38,28.54,1.94,42.31-1.18.49.49-.32,9.42,0,11.8-1.58.01-1.49.53,0,1.47.53,1.79,3.55,3.9,4.56,6.59,5.37,14.3-21.75,14.8-30.34,14.03-7.19-.64-13.63-6.06-19.9.01-.69-4.1-1.48-7.53-1.49-11.79l1.47-5.9Z" style="fill:#040404;"/><path d="M449.63,156.51c.77-2.76,5.18-3.07,7.27-5.26,5.24-5.5,2.4-14.24,3.06-21.27-10-2.32-13.14,4.52-20.63,8.85.19-4.28-1.39-14.26,3.62-14.84,5.29-.61,50.24-1.43,52.22.27,1.73,1.49.7,10.4,1.64,13.08-2.2,1.36-10.61-7.26-13.2-7.95-1.05-.28-7.1.41-7.36.67-.65.63-.37,16.19.2,18.07,1.31,4.29,8.25,4.77,10.04,8.38h-36.85Z" style="fill:#040404;"/><path d="M243.26,153.56c7.85-11.43,6.91-21.22-4.42-29.48h35.38c-1.25,3.39-7.34,3.99-8.78,7.07-2.69,5.76-.82,13.39,0,19.38,15.08,1.79,22.86-.22,33.82-10.24-1.86,6.98,5.88,15.17-3.6,16.28-15.24,1.78-37.75-.03-53.87-.07.56-.93.87-2.06,1.47-2.95Z" style="fill:#040404;"/><path d="M644.21,140.3c6.38,7.03,38.3,5.98,38.3,9.58,0,3.1-14.31,2.46-16.9,2.19-8.26-.84-12.33-3.81-19.17-7.38-3.41-1.78-1.09-1.79-3.7,1.51,0-2.11.31-4.1,1.47-5.9Z" style="fill:#f6f6f6;"/><path d="M689.9,135.88c.07.51-.12,1.06,0,1.47-10.48-3.6-22.3-2.44-32.8-4.85-1.8-.41-4.9-.55-4.06-3.24,12.21-4.17,25.85.83,36.86,6.62Z" style="fill:#ededed;"/><path d="M356.03,124.09c5.37.79,15.27,6.44,8.91,11.86-2.96,2.52-8.15,1.32-9.63,4.33,4.1,1.38,12.67,1.44,13.31,6.67.72,5.89-6.38,9.56-11.11,9.56h-53.8c1.75-3.8,7.68-3.19,9.56-7.39,1.31-2.93,1.44-15.05.01-17.65-1.3-2.36-8.51-4.34-9.57-7.38,16.13,1.7,36.78-2.29,52.33,0Z" style="fill:#030303;"/><path d="M330.22,150.62v-7.39c27.87-2.97,27.92,10.35,0,7.39Z" style="fill:#fafafa;"/><path d="M349.23,130.12c.15.12,1.54,3.37,1.54,3.56-.13,4.01-24.95,7.97-20.54-3.7,3.39.66,17.55-1.01,19,.14Z" style="fill:#e9e9e9;"/><path d="M553.55,124.09c4.02.66,15.25,7.06,11.18,12.27-1.54,1.97-10.27,2.86-8.93,6.11,1.41,3.43,10.55,10.73,13.23,14.03-5.48-.87-14.85,1.38-19.67-.22s-2.97-14.06-16.47-13.16c-12.33.83.23,9.63,3.71,13.39h-35.38c.93-3.66,6.51-3.37,8.09-5.92,2.02-3.26,3.3-16.55.85-19.98-1.95-2.73-7.72-3.41-8.94-6.53,15.83,1.85,37.23-2.49,52.33,0Z" style="fill:#030303;"/><path d="M527.75,137.36v-7.39c25.94-2.89,25.99,10.27,0,7.39Z" style="fill:#fdfdfd;"/><path d="M630.48,130.45c4.19,3.53,6.93,12.15,4.13,17.21-1.26,2.28-16.42,9.41-19.5,9.98-14.96,2.79-54.58-5.18-37.27-25.48,10.2-11.97,41.1-11.43,52.64-1.71Z" style="fill:#040404;"/><circle cx="604.9" cy="140.23" r="11.92" style="fill:#fdfdfd;"/><path d="M420.15,124.09c-4.41,5.36-5.42,5.05-1.76,11.35,4.94,8.5,12.2,14.78,19.45,21.08h-35.38c1.68-3.8,8.02-4.11,7.37-8.84h-20.64c-.64,5.08,6.35,5.84,7.37,8.84h-26.53c3.89-3.52,21.51-23.34,20.64-27.22-.48-2.15-5.86-1.03-4.43-5.21h33.9Z" style="fill:#050505;"/><path d="M405.41,141.76c-8.58,2.08-15.65-.75-5.17-7.35l5.17,7.35Z" style="fill:#f4f4f4;"/><path d="M241.79,156.51c-14.72-.04-29.5.04-44.21-.01l10.31-5.9c2.57-3.72-22.24-4.48-22.08-.72.09,1.97,8.43,3.97,8.82,6.63h-28.01c4.87-3.39,21.35-22.06,20.4-27.06-.39-2.04-3.83-3.18-4.19-5.37h33.9c-1.22,3.13-4.98,3.44-3.87,7.41,1.86,6.67,20.66,29.22,30.4,22.07,2.7,1.59,1.32,2.37-1.47,2.95Z" style="fill:#040404;"/><path d="M201.99,141.76c-1.8-.55-11.94,1.79-10.3-2.17,3.81-9.23,6.84-4.02,10.3,2.17Z" style="fill:#f4f4f4;"/><path d="M359.71,200.73v40.53c0,.66,4.1,2.61,2.95,5.16h-20.64c.22-3.34,2.5-4.2,3.03-8.02.86-6.23.8-26.26.04-32.62-.28-2.31-5.67-2.97-3.07-5.04,1.03-.81,14.68.57,17.68,0Z" style="fill:#c30d0c;"/><path d="M269.79,200.73v40.53c0,.66,4.1,2.61,2.95,5.16h-20.64c-1.09-4.42,2.66-1.52,3.08-5.05.86-7.23.86-28.37,0-35.6-.28-2.31-5.67-2.97-3.07-5.04,1.03-.81,14.68.57,17.68,0Z" style="fill:#c30d0c;"/><path d="M318.44,200.73c-.22,3.34-2.5,4.2-3.03,8.02-.77,5.58-.74,24.01,0,29.64.46,3.46,6.03,9.55.79,9.55-24.34.01-12.64-25.45-15.49-40.54-.54-2.86-3.3-3.74-2.91-6.67h20.64Z" style="fill:#c30d0c;"/><path d="M281.59,225.77c8.69.3,9.7,7.27,8.86,14.75,9-4.44,3.69,6.54-3.83,7.36-11.99,1.3-8.06-8.1-9.75-15.17-.71-2.99-3.67-4.82-4.18-7.75-.47-2.71,2.95-1.69,3.84-4.91,2.36-8.49-.49-12.2-3.78-19.32,19.03-2,24.2,14.75,8.84,25.03Z" style="fill:#c30d0c;"/><path d="M403.94,247.89c-1.49-4.72,2.76-3.6,3.05-6.53.76-7.52.89-26.74,0-34.09-.1-.82-6.96-7.37-.86-6.55,21.62,2.91,21.62,46.5-2.19,47.17Z" style="fill:#c30d0c;"/><path d="M400.98,200.74c-3.28,10.94-4.15,24.7-2.98,36.15.42,4.12,4.02,7.37,2.24,11.03-23.03-5.24-22.73-43.08.75-47.18Z" style="fill:#c30d0c;"/><path d="M227.04,200.74c-3.28,10.94-4.15,24.7-2.98,36.15.42,4.12,4.02,7.37,2.24,11.03-22.5-5.55-23-43.01.75-47.18Z" style="fill:#c30d0c;"/><path d="M376.99,225.37c-2.95,2.95-10.25,3.78-14.32,3.35-.45-3.19,2.88-4.52,3.75-7.28,2.64-8.34-.32-13.62-3.75-20.71,14.23-3.16,23.92,15.04,14.32,24.63Z" style="fill:#c30d0c;"/><path d="M247.68,224.32c.41,2.92-2.38,3.8-2.9,6.66-.61,3.32.9,10.34-.28,12.26-.49.8-13.49,5.59-14.49,4.65,2.9-5.94,3.89-11.8,3.07-18.53-.28-2.3-5.66-2.97-3.07-5.04,1.03-.81,14.7.57,17.67,0Z" style="fill:#c30d0c;"/><path d="M337.59,200.74c.27,3.82-3.66,4.25-4.38,8.13-2.47,13.15,6.99,35.04-11.82,39.02-.35-4.32,4.54-4.37,6.55-7.44,3-4.57,3.12-24.27,2.2-30.06-.7-4.38-4.05-5.68-4.33-9.65h11.78Z" style="fill:#c30d0c;"/><path d="M244.72,200.73c-.42,4.95.62,10.69.01,15.5-1.09,8.6-5.67-6.76-6.67-8.1-3.06-4.07-8.55-2.83-8.07-7.4,5.43,1.01,9.31,2.16,14.72,0Z" style="fill:#c30d0c;"/></svg>