<svg viewBox="0 0 380.14 380.14" xmlns="http://www.w3.org/2000/svg"><circle cx="190.07" cy="190.07" fill="none" r="190.07"/><path d="m214.86 265.29c-12.4 13.36-28.42 20.97-44.92 21.68-15.97.68-30.51-5.21-41.16-16.36-4.55-4.76-8.18-10.27-10.84-16.32-.56.07-1.12.14-1.67.2l-.4.04h-.4c-.62.03-1.61.2-2.72.87-.9.55-1.74 1.35-2.44 2.31v.02c9.84 23.72 32.17 39.78 59.31 38.89 21.57-.71 41.68-11.83 55.57-28.82-2.69-1.7-5.36-3.4-8.01-5.12-.72.82-1.49 1.68-2.34 2.6z" fill="none"/><path d="m112.72 210.96v-27.47c-2.73-3.5-5.35-7.11-7.84-10.81v41.54c.15-.05.3-.09.45-.15 2.49-.84 4.96-1.88 7.39-3.12z" fill="none"/><g fill="#001438"><path d="m260.7 107.89v-13.53h.06v-16.34l-128.51 30.03v.03l-19.53 4.56v10.54l131.5-26.34v47.17c1.15.58 2.26 1.24 3.35 1.98l.27.19.26.21c1.28 1.01 2.78 1.77 4.47 2.25 1.4.4 2.92.6 4.49.6 1.24-.45 2.49-.78 3.7-1.03v-40.34h-.06z"/><path d="m104.88 214.22v-41.54c-1.99-2.95-3.91-5.96-5.74-9.02l-6.37-1.28v54.17l2.71-.25c3.12-.36 6.27-1.06 9.39-2.08z"/><path d="m104.88 107.47-12.11 2.92v16.48l12.11-2.23z"/><path d="m254.15 181.38c-2.95 1.8-4.7 3.66-9.31 8.79l-.13.14c-.16.18-.32.36-.49.54v11.5c3.14 1.83 6.32 3.61 9.55 5.33 2.3 1.22 4.63 2.42 6.99 3.59v-32.73c-2.35.65-4.57 1.6-6.61 2.84z"/><path d="m225.2 267.81c-13.89 17-34 28.11-55.57 28.82-27.14.89-49.47-15.18-59.32-38.89l-4.07 5.65-6.73-1.86c-.35-.1-.96-.28-1.76-.57 3.58 10.11 9.05 19.31 16.25 27.11 14.23 15.4 33.85 23.89 55.63 23.51 22.79-.4 45.21-10.43 62.73-28.71 1.54-1.61 3.03-3.27 4.46-4.96-.62-1.31-1.23-2.64-1.85-4-3.28-2.02-6.53-4.06-9.77-6.1z"/><path d="m104.88 106.36v1.11l6.15-1.48v.18l129.74-31.28v-.08l19.99-4.82v-16.24l-167.99 43.05v13.59-1.09z"/><path d="m104.88 106.36-12.11 2.94v1.09l12.11-2.92z"/></g><path d="m121.5 201.16c1.04-1.27 2.12-2.49 3.24-3.68-3.82-4.03-7.46-8.23-10.9-12.55-.38-.48-.75-.96-1.13-1.44v27.47c.95-.48 1.9-.99 2.83-1.53 1.8-2.89 3.8-5.66 5.95-8.27z" fill="#ce0d0d"/><path d="m204.21 254.15c-8.88 10.01-21.09 16.6-34.28 17.37-15.97.93-29.64-6.98-37.37-19.61-4.89 1-9.78 1.8-14.62 2.39 2.65 6.05 6.29 11.56 10.84 16.32 10.65 11.15 25.19 17.04 41.16 16.36 16.5-.7 32.52-8.32 44.92-21.68.85-.91 1.62-1.77 2.34-2.6-3.75-2.42-7.45-4.85-11.1-7.28-.63-.42-1.26-.85-1.89-1.27z" fill="#ce0d0d"/><path d="m220.39 126.78v-.08l13.9-2.72v-15.84l-81.69 17.22c.35 1.13 2.38 7.1 8.22 13.07z" fill="#ce0d0d"/><path d="m244.22 176.3c1.44-1.29 2.93-2.41 4.71-3.49 4.43-2.69 8.68-3.95 11.83-4.57.46-.09.89-.17 1.3-.24 0 0 9.99.74 16.46.83.16-.72 1.11-5.5-2.05-8.83-1.58-1.67-5.07-2.45-8.7-2.45-2.46 0-4.97.36-7.02 1.05-.54.18-1.06.38-1.53.61-.64.05-1.37.08-2.18.08-2.03 0-4.55-.22-7.25-.99-2.27-.65-4.12-1.53-5.58-2.41-.95-.57-1.73-1.13-2.35-1.62-3.4-2.34-6.89-3.12-10.05-3.12-6.31 0-11.25 3.12-11.25 3.12s-6.63 2.88-17.38 7.28c-2.01.12-3.96.18-5.84.18-26.6 0-40.69-11.49-47.83-21.09-5.12-6.89-6.67-12.81-6.67-12.81s-16 2.95-16 2.95l-21.98 4.06-12.11 2.24-39.12 7.23c12.66 2.54 25.69 5.15 39.12 7.84 4 .8 8.04 1.61 12.11 2.43.23.05.45.09.67.14 2.1 3.71 4.48 7.62 7.17 11.66 2.67 4.01 5.66 8.14 8.99 12.33 1.36 1.71 2.73 3.36 4.09 4.96 4.56 5.33 9.1 10.03 13.45 14.14-2.92 2.28-6.46 5.47-10.01 9.76-1.29 1.56-2.43 3.09-3.45 4.56-1.13 1.64-2.1 3.19-2.93 4.62-2.78 1.75-6.19 3.63-10.15 5.28-1.34.56-2.73 1.09-4.19 1.58-1.26.42-2.47.78-3.65 1.1-3.12.83-5.93 1.32-8.36 1.6-1.26.12-2.5.23-3.75.35-1.69.16-3.38.31-5.07.47-.59 2.42-1.03 5.69-.4 9.22.94 5.3 3.89 8.93 6.93 11.34 3.71 2.95 7.54 4.08 7.96 4.2.84-1.17 2.39-3.03 4.72-4.6.21-.14.41-.28.63-.42 2.87-1.75 5.5-2.19 7.09-2.3.19-.01.37-.02.53-.03 4.07-.45 8.44-1.09 13.07-1.98 2.96-.57 6.03-1.23 9.21-2.02 16.16-3.99 30.43-9.87 42.2-15.78 9.51 6.95 19.67 14.07 30.54 21.33.5.33.98.66 1.48.99 3.79 2.52 7.59 5 11.39 7.45 2.68 1.73 5.36 3.44 8.05 5.14 3.92 2.48 7.85 4.93 11.77 7.33.27.61.54 1.21.81 1.81 4.66 10.36 9.47 19.39 14.2 30.12 6.37 11.81 6.81 14.63 16.65 29.8.97-52.59 1.28-50.82 2.17-99.18-5.32-2.2-10.79-4.62-16.37-7.3-3.72-1.79-7.49-3.68-11.29-5.7-1.65-.88-3.25-1.75-4.83-2.63-8.22-4.57-15.56-9.17-22.06-13.61 7.27-8.02 12.04-13.31 15.07-16.69 2.81-3.13 4.86-5.41 6.99-7.31z" fill="#001438"/></svg>